# xmcd CD database file
#
# Track frame offsets:
#	150
#	16485
#	42719
#	69733
#	89196
#	112290
#	133474
#	172194
#	205425
#	224534
#	253652
#	280875
#	292293
#	312768
#
# Disc length: 4520 seconds
#
# Revision: 0
# Processed by: cddbd v1.5.2PL0 Copyright (c) Steve Scherf et al.
# Submitted via: CDex 1.70beta2
#
DISCID=fe11a60e
DTITLE=White-X-Blues-Band - For Personal Information Only
DYEAR=2006
DGENRE=Blues
TTITLE0=Pickin Up The Rice
TTITLE1=Motel Nightmares
TTITLE2=Another Bleeding Wound
TTITLE3=Into The Desert Of Truth Part I
TTITLE4=Flying Dying Transsylvanian
TTITLE5=Someone Was Killed
TTITLE6=The Desperation
TTITLE7=I Wonder If It Will Rain Today
TTITLE8=Into The Desert Of Truth Part II
TTITLE9=Crying Prospects
TTITLE10=The One
TTITLE11=Into The Desert Of Truth Part III
TTITLE12=The Weather Of Memory Is Changing
TTITLE13=When The Angel Came
EXTD=YEAR: 2006
EXTT0=
EXTT1=
EXTT2=
EXTT3=
EXTT4=
EXTT5=
EXTT6=
EXTT7=
EXTT8=
EXTT9=
EXTT10=
EXTT11=
EXTT12=
EXTT13=
PLAYORDER=
